<svg xmlns="http://www.w3.org/2000/svg" viewBox="0 0 665.51 160.24"><defs><style>.cls-1{fill:#f9f9f9;}</style></defs><title>About</title><g id="Слой_2" data-name="Слой 2"><g id="Слой_1-2" data-name="Слой 1"><path class="cls-1" d="M169.68,157.41h-46l-7.79-22.66H53.81L46,157.41H0L59.24,0h51Zm-64.9-58.06L84.72,40.12,64.66,99.36Z"/><path class="cls-1" d="M216.65,157.41H180.3V0h36.34V56.88q13-16.28,33.75-16.28,21.71,0,36,16.17t14.28,43.54q0,28.09-14.16,44t-36.11,15.93q-19.82,0-33.75-16Zm0-39.41a23.61,23.61,0,0,0,9.56,7.32,29.35,29.35,0,0,0,12.15,2.83q11.09,0,18.17-7.55t7.08-20.3q0-12.51-7.08-20.06t-18.17-7.55a28.41,28.41,0,0,0-12.15,3,24.58,24.58,0,0,0-9.56,7.43Z"/><path class="cls-1" d="M374.29,160.24q-28.09,0-45.08-17.46t-17-42.48q0-25,17-42.36t45.08-17.35q28.32,0,45.31,17.35t17,42.36q0,25-17,42.48T374.29,160.24Zm-18.05-40q6.49,7.91,18.05,7.91t18.29-7.91q6.73-7.9,6.73-19.94,0-11.8-6.73-19.71t-18.29-7.91q-11.57,0-18.05,7.91t-6.49,19.71Q349.75,112.34,356.24,120.24Z"/><path class="cls-1" d="M569,157.41H532.64V143.72Q518,160.25,493.23,160.24q-18.88,0-28.2-9.56t-9.32-26.08V43.42h36.34v66.32q0,18.41,18.88,18.41,13,0,21.71-11.09V43.42H569Z"/><path class="cls-1" d="M638.61,160.24q-17.47,0-26.55-8.5t-9.09-25V75H584.09V43.42H603V12.27h36.11V43.42h23.13V75H639.08v41.54a12.47,12.47,0,0,0,2.71,8.38,9.25,9.25,0,0,0,7.43,3.19q6.84,0,9.2-2.83l7.08,27.38Q657.49,160.24,638.61,160.24Z"/></g></g></svg>