<svg xmlns="http://www.w3.org/2000/svg" viewBox="0 0 758.9 356.54"><defs><style>.cls-1{fill:#fff;}</style></defs><title>d_menu</title><g id="Слой_2" data-name="Слой 2"><g id="Слой_1-2" data-name="Слой 1"><path class="cls-1" d="M155,126.72a76.34,76.34,0,0,1-30.29,29.94q-19.65,10.88-46.15,10.88H11.83V0H78.56q26.5,0,46.27,10.53A73.23,73.23,0,0,1,155.12,40q10.53,18.94,10.53,43.31T155,126.72Zm-48.28-12q11.84-11.11,11.84-31.47,0-20.11-11.84-31.36T74.3,40.7H58.45v85.19H74.3Q94.9,125.89,106.72,114.77Z"/><path class="cls-1" d="M233.09,37.15V64.84h54.19V100.1H233.09v30.29h61.29v37.15H186.47V0H294.38V37.15Z"/><path class="cls-1" d="M362.29,132.28h52.3v35.26H315.67V0h46.62Z"/><path class="cls-1" d="M477.53,0V95.6q0,14.2,6.27,21.89t19.05,7.69q12.78,0,19.29-7.81t6.51-21.77V0H575V95.6q0,23.67-9.59,40.23a62.18,62.18,0,0,1-26.14,25q-16.57,8.4-37.39,8.4t-36.8-8.28a58.91,58.91,0,0,1-25-24.85q-9-16.56-9-40.47V0Z"/><path class="cls-1" d="M703.76,167.54,670.86,120l-27.92,47.56h-53L644.12,81.4,587.8,0h55.14l31.95,46.14L701.86,0h53.25L701.39,84.48l57.51,83.06Z"/><path class="cls-1" d="M117.61,328.62H58.21L49,356.54H0L61.29,189.71H115l61.05,166.83H126.84Zm-11.6-35L88,239.17,69.81,293.59Z"/><path class="cls-1" d="M275,356.54l-33.84-61.76H236.4v61.76H189.78V189h73.6q20.12,0,34.19,7t21.18,19.29a54.3,54.3,0,0,1,7.1,27.68q0,17.52-9.7,30.41t-27.92,18.1l38.1,65.08Zm-38.58-93h23q19.39,0,19.4-17.51,0-8.28-4.85-13t-14.55-4.74h-23Z"/><path class="cls-1" d="M470.44,189v37.15h-45.2V356.54H378.86V226.15H334.14V189Z"/></g></g></svg>