<svg xmlns="http://www.w3.org/2000/svg" viewBox="0 0 1222.71 168.96"><defs><style>.cls-1{fill:#fff;}</style></defs><title>dart_menu_white</title><g id="Слой_2" data-name="Слой 2"><g id="Слой_1-2" data-name="Слой 1"><path class="cls-1" d="M140,127a73.79,73.79,0,0,1-30.29,29.7Q89.93,167.3,63.18,167.3H0V0H63.18q27,0,46.62,10.41A72.73,72.73,0,0,1,140,39.76Q150.5,58.69,150.5,83.3T140,127Zm-43.54-8.4Q109.57,106,109.56,83.3T96.43,48Q83.29,35.5,59.63,35.5H40.47v95.6H59.63Q83.3,131.1,96.43,118.56Z"/><path class="cls-1" d="M213.92,32.18v35h56.56V97.73H213.92v37.15h63.66V167.3H173.45V0H277.58V32.18Z"/><path class="cls-1" d="M341,136.3h54v31H300.53V0H341Z"/><path class="cls-1" d="M452.92,0V96.55q0,16.56,7.46,25.32T482,130.63q14.19,0,21.65-8.76t7.45-25.32V0H551.6V96.55q0,23.67-9.23,39.87a60,60,0,0,1-25.2,24.38q-16,8.16-36.09,8.16t-35.49-8a57.1,57.1,0,0,1-24.14-24.38q-8.76-16.32-8.76-40V0Z"/><path class="cls-1" d="M680.09,167.3l-35.26-52.06L614.54,167.3H568.16l53.48-86.13L566.51,0h48l34.32,50.4L678.44,0h46.14L671.81,84.24l56.32,83.06Z"/><path class="cls-1" d="M835.57,67.44v33.61H731.21V67.44Z"/><path class="cls-1" d="M975.89,136.78H913.18L902.77,167.3H860.18L921.47,1.18h46.61l61.29,166.12H986.31ZM965.48,106,944.66,44.49,923.6,106Z"/><path class="cls-1" d="M1105,40.94a49.83,49.83,0,0,1,25.91-7.1V77.15H1119.3q-16.1,0-25,6.86t-8.87,23.19v60.1H1045v-132h40.47V60.11A57.25,57.25,0,0,1,1105,40.94Z"/><path class="cls-1" d="M1222.71,132.52V167.3h-18.22q-23.21,0-36.09-11.47t-12.9-38V69.34h-17.75V35.26h17.75V2.84H1196V35.26h26.5V69.34H1196v49.22q0,7.8,3.19,10.88t10.77,3.08Z"/></g></g></svg>