<svg xmlns="http://www.w3.org/2000/svg" viewBox="0 0 916.61 168.74"><defs><style>.cls-1{fill:#f9f9f9;}</style></defs><title>Portfolio</title><g id="Слой_2" data-name="Слой 2"><g id="Слой_1-2" data-name="Слой 1"><path class="cls-1" d="M40.59,165.91H0V8.5H78.82q25.49,0,40.12,15t14.63,37.41q0,22.19-14.63,37.17T78.82,113H40.59ZM73.4,77.64q8.26,0,13.57-4.48t5.31-12.27q0-8-5.31-12.51T73.4,43.9H40.59V77.64Z"/><path class="cls-1" d="M201.07,168.74q-28.09,0-45.08-17.46T139,108.8q0-25,17-42.36t45.08-17.35q28.32,0,45.31,17.35t17,42.36q0,25-17,42.48T201.07,168.74Zm-18.05-40q6.49,7.91,18.05,7.91t18.29-7.91q6.73-7.9,6.73-19.94,0-11.8-6.73-19.71t-18.29-7.91q-11.57,0-18.05,7.91t-6.49,19.71Q176.53,120.83,183,128.74Z"/><path class="cls-1" d="M318.83,165.91H282.49v-114h36.34V65.84a48.3,48.3,0,0,1,15.81-12,44,44,0,0,1,19.82-5V83.78a41.4,41.4,0,0,0-9-.94A44.07,44.07,0,0,0,330,85.79q-7.91,3-11.21,7.43Z"/><path class="cls-1" d="M414.18,168.74q-17.47,0-26.55-8.5t-9.09-25V83.54H359.66V51.92h18.88V20.77h36.11V51.92h23.13V83.54H414.65v41.54a12.47,12.47,0,0,0,2.71,8.38,9.24,9.24,0,0,0,7.43,3.19q6.84,0,9.2-2.83l7.08,27.38Q433.06,168.74,414.18,168.74Z"/><path class="cls-1" d="M500.08,165.91H463.73V83.54H444.85V51.92h18.88V46.26q0-17.93,11.45-29T504.56,6.14q21.71,0,32.8,11.33L523.91,38.23q-4.25-4.48-11.33-4.48a12.63,12.63,0,0,0-9,3.3q-3.54,3.31-3.54,9.2v5.66h23.13V83.54H500.08Z"/><path class="cls-1" d="M592.83,168.74q-28.09,0-45.08-17.46t-17-42.48q0-25,17-42.36t45.08-17.35q28.32,0,45.31,17.35t17,42.36q0,25-17,42.48T592.83,168.74Zm-18.05-40q6.49,7.91,18.05,7.91t18.29-7.91q6.73-7.9,6.73-19.94,0-11.8-6.73-19.71t-18.29-7.91q-11.57,0-18.05,7.91t-6.49,19.71Q568.28,120.83,574.77,128.74Z"/><path class="cls-1" d="M710.59,165.91H674.24V8.5h36.34Z"/><path class="cls-1" d="M769.94,35.64a20.8,20.8,0,0,1-29.5,0,20.44,20.44,0,0,1-6-14.87,20.06,20.06,0,0,1,6-14.75,21.08,21.08,0,0,1,29.5,0,20.06,20.06,0,0,1,6,14.75A20.45,20.45,0,0,1,769.94,35.64Zm3.42,130.27H737v-114h36.34Z"/><path class="cls-1" d="M854.31,168.74q-28.09,0-45.08-17.46t-17-42.48q0-25,17-42.36t45.08-17.35q28.32,0,45.31,17.35t17,42.36q0,25-17,42.48T854.31,168.74Zm-18.05-40q6.49,7.91,18.05,7.91t18.29-7.91q6.73-7.9,6.73-19.94,0-11.8-6.73-19.71t-18.29-7.91q-11.57,0-18.05,7.91t-6.49,19.71Q829.76,120.83,836.25,128.74Z"/></g></g></svg>