<svg xmlns="http://www.w3.org/2000/svg" xmlns:xlink="http://www.w3.org/1999/xlink" viewBox="0 0 110.61 110.48"><defs><style>.cls-1{fill:url(#linear-gradient);}.cls-2{fill:url(#Безымянный_градиент_50);}.cls-3{fill:url(#Безымянный_градиент_50-2);}.cls-4{fill:url(#Безымянный_градиент_37);}.cls-5{fill:url(#Безымянный_градиент_37-2);}</style><linearGradient id="linear-gradient" x1="830.36" y1="55.21" x2="-98.46" y2="55.21" gradientUnits="userSpaceOnUse"><stop offset="0.06" stop-color="#4e7094"/><stop offset="0.33" stop-color="#4e7094"/><stop offset="0.4" stop-color="#5f6585"/><stop offset="0.54" stop-color="#8c495d"/><stop offset="0.69" stop-color="#c62529"/></linearGradient><linearGradient id="Безымянный_градиент_50" x1="63.33" y1="32.19" x2="110.61" y2="32.19" gradientUnits="userSpaceOnUse"><stop offset="0" stop-color="#d7e6f6"/><stop offset="0.31" stop-color="#d1e4f5"/><stop offset="0.71" stop-color="#c1ddf2"/><stop offset="0.82" stop-color="#bbdbf1"/></linearGradient><linearGradient id="Безымянный_градиент_50-2" x1="69.35" y1="88.64" x2="106.5" y2="88.64" xlink:href="#Безымянный_градиент_50"/><linearGradient id="Безымянный_градиент_37" x1="4.13" y1="91.98" x2="57.43" y2="91.98" gradientUnits="userSpaceOnUse"><stop offset="0.18" stop-color="#bbdbf1"/><stop offset="0.29" stop-color="#c1ddf2"/><stop offset="0.69" stop-color="#d1e4f5"/><stop offset="1" stop-color="#d7e6f6"/></linearGradient><linearGradient id="Безымянный_градиент_37-2" x1="0" y1="31.99" x2="51.72" y2="31.99" xlink:href="#Безымянный_градиент_37"/></defs><title>Ресурс 1</title><g id="Слой_2" data-name="Слой 2"><g id="Слой_1-2" data-name="Слой 1"><path class="cls-1" d="M89.26,67l-.69-.58-.75-.61-.19-.16-.35-.27L87,65.19l-.37-.28-.23-.18-.39-.27-.23-.17L85.45,64l-.27-.18-.36-.23-.29-.18-.36-.21-.31-.17a3.9,3.9,0,0,0-.35-.19l-.32-.16-.36-.16-.33-.15-.35-.14-.35-.13L81.45,62l-.35-.11-.35-.08-.36-.08-.35,0-.36,0-.35,0-.41,0c-5.2.16-8,5.91-8.79,7.8l-5.23,0L63.43,92.09,58.52,3.61l-1.76,0L51.64,74.86c-.15-1.14-.28-2-.38-2.66-.06-.33-.11-.61-.16-.84s-.09-.43-.13-.59a2.4,2.4,0,0,0-.22-.62.18.18,0,0,0,0-.07l-.09-.1,0,0-.34-.2-.34,0-.15,0c-.44-.12-1.43-.65-2.49-2.62a5.9,5.9,0,0,0-1.59-1.91,3.59,3.59,0,0,0-2-.74c-.14,0-.27,0-.41,0l-.26,0-.3.06-.25.06-.3.1-.25.1L41.6,65l-.24.13c-.1.06-.19.14-.29.21l-.22.16a3.65,3.65,0,0,0-.3.27l-.2.18-.31.35-.16.17a6.7,6.7,0,0,0-.45.6c-1.51,2.19-2.57,2.1-2.54,2.11l-26.23,0v.07H1.78c.16.59.33,1.17.5,1.75H36.61l.24,0h.42l.13,0,.08,0,.14,0,.09,0,.15,0,.09,0,.18-.08.08,0,.28-.14,0,0,.25-.15.1-.08.19-.14.13-.1.19-.16.13-.12.19-.18a1.85,1.85,0,0,1,.14-.14l.2-.22.13-.15.23-.28.11-.15c.12-.15.23-.3.35-.47a4.56,4.56,0,0,1,.31-.42l.1-.12a2.62,2.62,0,0,1,.22-.25l.13-.13a1.62,1.62,0,0,1,.19-.18l.14-.12.19-.14.15-.1.18-.11.16-.07.19-.07.15,0,.19,0h.4A2.89,2.89,0,0,1,45.69,68,11.26,11.26,0,0,0,47,69.93c.17.19.33.37.49.52a4.34,4.34,0,0,0,1.49,1l.34.1c.07.32.15.79.24,1.38.06.4.12.84.19,1.33.17,1.22.36,2.7.55,4.3.16,1.28.32,2.64.47,4,.08.68.15,1.36.23,2l1.74,0,4.82-67h0l5,89.3h1.75l2.3-35.56,4.62,0s0,0,0,0h.22l.2-.58a15.4,15.4,0,0,1,3.53-5.48A6,6,0,0,1,79,63.39h.44l.29,0,.31,0,.28,0,.32.07.28.07.32.1.28.1.33.13.27.12a3.13,3.13,0,0,1,.32.15l.28.13.32.18.27.15.32.19.27.17.32.21.25.17.32.22.25.18.32.24.24.18.32.25.22.17.33.27.2.16.33.28.19.15.37.31.12.1.48.41c1.8,1.52,3,2.53,4,2.53h16.37c.17-.58.35-1.16.5-1.74H92.17A12.69,12.69,0,0,1,89.26,67Z"/><path class="cls-2" d="M78.76,56.41H79c5.82,0,10.71,4.14,13.63,6.6l0,0,1,.87h16.22A55.33,55.33,0,0,0,63.33.46L67.1,63.93C70,59.3,74.18,56.55,78.76,56.41Z"/><path class="cls-3" d="M84.75,72.33l-.23-.19c-1.13-1-4.13-3.5-5.27-3.54h-.12c-.6.13-2,2-2.65,3.73l-.19.55a5.22,5.22,0,0,1-3.53,3.31,5.31,5.31,0,0,1-1.32.25L70.27,94.52h0v.07l-.82,12.58v0l-.1,1.49A55.41,55.41,0,0,0,106.5,76.11H92.16C89.22,76.11,87.16,74.36,84.75,72.33Z"/><path class="cls-4" d="M56.23,88.38a5.25,5.25,0,0,1-3.43,1.37l-1.75,0H51a5.23,5.23,0,0,1-5.19-4.65c-.43-4-.9-7.85-1.24-10.3a11.16,11.16,0,0,1-1.4-1.36,9.13,9.13,0,0,1-6.27,2.71l-.46,0H4.13a55.31,55.31,0,0,0,51.18,34.32c.71,0,1.42,0,2.12,0L56.44,92Z"/><path class="cls-5" d="M10.66,63.9h0l24.57,0c2.14-3,5.05-4.69,8.2-4.69H44a8.77,8.77,0,0,1,3.49,1L51.72,0A55.3,55.3,0,0,0,0,55.18,56.56,56.56,0,0,0,.7,64H9.8A4.91,4.91,0,0,1,10.66,63.9Z"/></g></g></svg>