<svg xmlns="http://www.w3.org/2000/svg" viewBox="0 0 959.79 162.84"><defs><style>.cls-1{fill:#f9f9f9;}</style></defs><title>Contacts</title><g id="Слой_2" data-name="Слой 2"><g id="Слой_1-2" data-name="Слой 1"><path class="cls-1" d="M85.2,162.84q-36.58,0-60.89-22.77T0,81.42Q0,45.31,24.19,22.66T85.2,0q47.44,0,68.68,42.24L118.94,58.76a37.37,37.37,0,0,0-13.33-16.28A34.57,34.57,0,0,0,85.2,35.87q-19.12,0-31.51,13.1T41.3,81.42q0,19.35,12.39,32.45T85.2,127a34.55,34.55,0,0,0,20.41-6.61,37.33,37.33,0,0,0,13.33-16.28l34.93,16.52A81.79,81.79,0,0,1,128,150.69Q111.15,162.84,85.2,162.84Z"/><path class="cls-1" d="M224.9,162.84q-28.09,0-45.08-17.46t-17-42.48q0-25,17-42.36T224.9,43.19q28.32,0,45.31,17.35t17,42.36q0,25-17,42.48T224.9,162.84Zm-18.05-40q6.49,7.91,18.05,7.91t18.29-7.91q6.73-7.9,6.73-19.94,0-11.8-6.73-19.71T224.9,75.28q-11.57,0-18.05,7.91t-6.49,19.71Q200.36,114.93,206.85,122.84Z"/><path class="cls-1" d="M419.84,160H383.49V94.16q0-18.88-18.64-18.88-13.22,0-22.18,11.09V160H306.32V46h36.34V59.94q14.39-16.75,39.41-16.76Q401,43.19,410.4,53t9.44,26.31Z"/><path class="cls-1" d="M489.45,162.84q-17.47,0-26.55-8.5t-9.09-25V77.64H434.94V46h18.88V14.87h36.11V46h23.13V77.64H489.93v41.54a12.47,12.47,0,0,0,2.71,8.38,9.24,9.24,0,0,0,7.43,3.19q6.84,0,9.2-2.83l7.08,27.38Q508.33,162.84,489.45,162.84Z"/><path class="cls-1" d="M634.83,160H598.48V148.68q-5.43,6.37-15,10.27a53.59,53.59,0,0,1-20.41,3.89,42,42,0,0,1-27-9.79q-12.16-9.79-12.15-27.73,0-18.88,11.8-27.73a44.38,44.38,0,0,1,27.38-8.85q24.78,0,35.4,13.22V88.26a14.17,14.17,0,0,0-6.14-12q-6.14-4.48-17-4.48a48.51,48.51,0,0,0-32.33,12L530,60.89q20.76-17.7,51.68-17.7a83.29,83.29,0,0,1,19.94,2.24,55,55,0,0,1,16.76,7.2,33.44,33.44,0,0,1,12,14.16q4.36,9.2,4.37,21.95Zm-56.64-21q14.63,0,20.3-8.26V120.6q-5.9-8-20.3-8-7.79,0-13,3.42a11.83,11.83,0,0,0,0,19.59Q570.4,139,578.19,139Z"/><path class="cls-1" d="M716,162.84q-26.9,0-44.6-16.64t-17.7-43.31q0-26.43,17.7-43.07T716,43.19q17,0,28.91,6.14t17.82,14.87l-23.6,21.95q-7.32-10.85-21.48-10.86-11.57,0-19.12,7.43T691,102.9q0,12.74,7.55,20.3t19.12,7.55q13.68,0,21.48-11.09l23.6,22.18q-5.9,8.73-17.82,14.87T716,162.84Z"/><path class="cls-1" d="M822.45,162.84q-17.47,0-26.55-8.5t-9.09-25V77.64H767.93V46h18.88V14.87h36.11V46H846V77.64H822.92v41.54a12.47,12.47,0,0,0,2.71,8.38,9.25,9.25,0,0,0,7.43,3.19q6.84,0,9.2-2.83l7.08,27.38Q841.32,162.84,822.45,162.84Z"/><path class="cls-1" d="M907.87,162.84A96,96,0,0,1,878,158.12q-14.51-4.72-23.48-12.74l15.1-25q6.6,5.9,18.53,10.5t21.59,4.6q15.34,0,15.34-8.73,0-4-6.84-6a135.57,135.57,0,0,0-16.52-3.54,136.27,136.27,0,0,1-19.47-4.6,35.39,35.39,0,0,1-16.64-11.09q-6.85-8-6.84-20.77,0-15.81,13-26.67t35.87-10.86q26.9,0,47.67,15.1L941.39,82.36a45.05,45.05,0,0,0-14.63-8.85,50.72,50.72,0,0,0-18.88-3.66,20.32,20.32,0,0,0-10.38,2.36q-4,2.36-4,5.9t6.84,5.31q6.84,1.77,16.52,3.54A139.6,139.6,0,0,1,936.31,92,36.13,36.13,0,0,1,953,103.72q6.84,8.38,6.84,21.36,0,16.76-13.92,27.26T907.87,162.84Z"/></g></g></svg>