<svg xmlns="http://www.w3.org/2000/svg" viewBox="0 0 169.2 1351.91"><defs><style>.cls-1{fill:#fff;}</style></defs><title>menu_v</title><g id="Слой_2" data-name="Слой 2"><g id="Слой_1-2" data-name="Слой 1"><path class="cls-1" d="M126.72,1208.74A76.34,76.34,0,0,1,156.66,1239q10.88,19.65,10.88,46.15v66.73H0v-66.73q0-26.51,10.53-46.26A73.23,73.23,0,0,1,40,1208.63q18.94-10.53,43.31-10.54T126.72,1208.74Zm-12,48.28q-11.11-11.83-31.47-11.83-20.11,0-31.36,11.83T40.7,1289.44v15.85h85.19v-15.85Q125.89,1268.85,114.77,1257Z"/><path class="cls-1" d="M37.15,1130.66H64.84v-54.2H100.1v54.2h30.29v-61.3h37.15v107.91H0V1069.36H37.15Z"/><path class="cls-1" d="M132.28,1001.45v-52.3h35.26v98.92H0v-46.62Z"/><path class="cls-1" d="M0,886.21H95.6q14.2,0,21.89-6.27t7.69-19.05q0-12.78-7.81-19.29T95.6,835.1H0V788.71H95.6q23.67,0,40.23,9.59a62.26,62.26,0,0,1,25,26.15q8.4,16.56,8.4,37.39t-8.28,36.79a58.85,58.85,0,0,1-24.85,25q-16.56,9-40.47,9H0Z"/><path class="cls-1" d="M167.54,660,120,692.88l47.56,27.92v53L81.4,719.62,0,775.94V720.8l46.14-31.95L0,661.88V608.63l84.48,53.72,83.06-57.5Z"/><path class="cls-1" d="M66.26,493.39h38.57v107.2H66.26Z"/><path class="cls-1" d="M139.62,352.83v59.4l27.92,9.23v49L.71,409.15V355.43l166.83-61.05V343.6Zm-35,11.59-54.42,18,54.42,18.22Z"/><path class="cls-1" d="M167.54,195.46,105.78,229.3V234h61.76v46.61H0V207.06q0-20.12,7-34.2t19.29-21.17A54.3,54.3,0,0,1,54,144.59q17.52,0,30.41,9.7t18.1,27.92l65.08-38.1ZM74.54,234v-23q0-19.4-17.51-19.4-8.28,0-13,4.85t-4.74,14.55v23Z"/><path class="cls-1" d="M0,0H37.15V45.2H167.54V91.58H37.15V136.3H0Z"/></g></g></svg>